<mxfile host="65bd71144e">
    <diagram id="2Z4F3KAlOLK05tOB8-TQ" name="Page-1">
        <mxGraphModel dx="1878" dy="1805" grid="1" gridSize="10" guides="1" tooltips="1" connect="1" arrows="1" fold="1" page="1" pageScale="1" pageWidth="850" pageHeight="1100" math="0" shadow="0">
            <root>
                <mxCell id="0"/>
                <mxCell id="1" parent="0"/>
                <mxCell id="2" value="&lt;span style=&quot;color: rgb(51, 51, 51); font-family: georgia, times, &amp;quot;times new roman&amp;quot;, serif; font-size: 14px; font-style: normal; font-weight: 400; letter-spacing: normal; text-indent: 0px; text-transform: none; word-spacing: 0px; background-color: rgb(255, 255, 255); display: inline; float: none;&quot;&gt;Create an IPO chart for each of the following methods:&lt;/span&gt;&lt;br style=&quot;color: rgb(51, 51, 51); font-family: georgia, times, &amp;quot;times new roman&amp;quot;, serif; font-size: 14px; font-style: normal; font-weight: 400; letter-spacing: normal; text-indent: 0px; text-transform: none; word-spacing: 0px; background-color: rgb(255, 255, 255);&quot;&gt;&lt;br style=&quot;color: rgb(51, 51, 51); font-family: georgia, times, &amp;quot;times new roman&amp;quot;, serif; font-size: 14px; font-style: normal; font-weight: 400; letter-spacing: normal; text-indent: 0px; text-transform: none; word-spacing: 0px; background-color: rgb(255, 255, 255);&quot;&gt;&lt;span style=&quot;color: rgb(51, 51, 51); font-family: georgia, times, &amp;quot;times new roman&amp;quot;, serif; font-size: 14px; font-style: normal; font-weight: 400; letter-spacing: normal; text-indent: 0px; text-transform: none; word-spacing: 0px; background-color: rgb(255, 255, 255); display: inline; float: none;&quot;&gt;a. The method that calculates the amount owed on a restaurant check, including tip&lt;/span&gt;&lt;br style=&quot;color: rgb(51, 51, 51); font-family: georgia, times, &amp;quot;times new roman&amp;quot;, serif; font-size: 14px; font-style: normal; font-weight: 400; letter-spacing: normal; text-indent: 0px; text-transform: none; word-spacing: 0px; background-color: rgb(255, 255, 255);&quot;&gt;&lt;br style=&quot;color: rgb(51, 51, 51); font-family: georgia, times, &amp;quot;times new roman&amp;quot;, serif; font-size: 14px; font-style: normal; font-weight: 400; letter-spacing: normal; text-indent: 0px; text-transform: none; word-spacing: 0px; background-color: rgb(255, 255, 255);&quot;&gt;&lt;span style=&quot;color: rgb(51, 51, 51); font-family: georgia, times, &amp;quot;times new roman&amp;quot;, serif; font-size: 14px; font-style: normal; font-weight: 400; letter-spacing: normal; text-indent: 0px; text-transform: none; word-spacing: 0px; background-color: rgb(255, 255, 255); display: inline; float: none;&quot;&gt;b. The method that calculates the cost to drive your car a mile&lt;/span&gt;&lt;br style=&quot;color: rgb(51, 51, 51); font-family: georgia, times, &amp;quot;times new roman&amp;quot;, serif; font-size: 14px; font-style: normal; font-weight: 400; letter-spacing: normal; text-indent: 0px; text-transform: none; word-spacing: 0px; background-color: rgb(255, 255, 255);&quot;&gt;&lt;br style=&quot;color: rgb(51, 51, 51); font-family: georgia, times, &amp;quot;times new roman&amp;quot;, serif; font-size: 14px; font-style: normal; font-weight: 400; letter-spacing: normal; text-indent: 0px; text-transform: none; word-spacing: 0px; background-color: rgb(255, 255, 255);&quot;&gt;&lt;span style=&quot;color: rgb(51, 51, 51); font-family: georgia, times, &amp;quot;times new roman&amp;quot;, serif; font-size: 14px; font-style: normal; font-weight: 400; letter-spacing: normal; text-indent: 0px; text-transform: none; word-spacing: 0px; background-color: rgb(255, 255, 255); display: inline; float: none;&quot;&gt;c. The method that calculates your annual medical expenses after the insurance company has made its payments&lt;/span&gt;&lt;br style=&quot;color: rgb(51, 51, 51); font-family: georgia, times, &amp;quot;times new roman&amp;quot;, serif; font-size: 14px; font-style: normal; font-weight: 400; letter-spacing: normal; text-indent: 0px; text-transform: none; word-spacing: 0px; background-color: rgb(255, 255, 255);&quot;&gt;" style="text;whiteSpace=wrap;html=1;" vertex="1" parent="1">
                    <mxGeometry x="10" y="10" width="550" height="130" as="geometry"/>
                </mxCell>
                <mxCell id="3" value="&lt;div class=&quot;heading&quot; style=&quot;box-sizing: border-box; margin: -5px 0px 16px -25px; padding: 0px; display: block; background-color: transparent; width: auto; color: rgb(87, 87, 87); font-size: 18px; font-style: normal; font-weight: 400; letter-spacing: normal; text-indent: 0px; text-transform: none; word-spacing: 0px;&quot;&gt;&lt;div class=&quot;caption&quot; id=&quot;VSFXL9VJM9QP9PL78186&quot; style=&quot;box-sizing: border-box ; margin: 0px ; padding: 8px 30px 0px ; font-family: , &amp;quot;tahoma&amp;quot; , &amp;quot;arial&amp;quot; , sans-serif ; font-size: 17.28px ; color: rgb(102 , 102 , 102) ; font-style: normal ; clear: both&quot;&gt;&lt;p style=&quot;box-sizing: border-box ; font-family: , &amp;quot;tahoma&amp;quot; , &amp;quot;arial&amp;quot; , sans-serif ; line-height: 1.5 ; color: rgb(87 , 87 , 87) ; margin: 0px 0px 15px ; padding: 0px ; font-size: 19.008px&quot;&gt;IPO chart for the method that finds the smallest of three numeric values&lt;/p&gt;&lt;/div&gt;&lt;/div&gt;&lt;div class=&quot;table rs_skip&quot; id=&quot;LAXA6E3YWNEFBZPH1901&quot; style=&quot;box-sizing: border-box; margin: 0px 0px 15px; padding: 0px; width: 800px; max-width: 100%; clear: both; color: rgb(87, 87, 87); font-size: 18px; font-style: normal; font-weight: 400; letter-spacing: normal; text-indent: 0px; text-transform: none; word-spacing: 0px;&quot;&gt;&lt;div class=&quot;maintable narrowtable&quot; style=&quot;box-sizing: border-box ; margin: 0px auto ; padding: 0px ; clear: both ; height: auto&quot;&gt;&lt;table class=&quot;frameall&quot; style=&quot;box-sizing: border-box ; font-family: , &amp;quot;tahoma&amp;quot; , &amp;quot;arial&amp;quot; , sans-serif ; margin: 0px auto 8px ; font-size: 15.66px ; width: 667px ; border-collapse: collapse ; border-spacing: 0px ; background-color: transparent ; border: 1px solid rgb(0 , 0 , 0) ; overflow-wrap: break-word ; border-radius: 5px&quot;&gt;&lt;colgroup style=&quot;box-sizing: border-box&quot;&gt;&lt;col width=&quot;133&quot; style=&quot;box-sizing: border-box&quot;&gt;&lt;col width=&quot;400&quot; style=&quot;box-sizing: border-box&quot;&gt;&lt;col width=&quot;133&quot; style=&quot;box-sizing: border-box&quot;&gt;&lt;/colgroup&gt;&lt;thead style=&quot;box-sizing: border-box&quot;&gt;&lt;tr id=&quot;SUYC5F47F8C77KELT136&quot; style=&quot;box-sizing: border-box ; background: rgb(255 , 255 , 255)&quot;&gt;&lt;th id=&quot;HGKKPHJPSVM5RJ8SC185&quot; class=&quot;alignleft underscore sidescore&quot; style=&quot;box-sizing: border-box ; margin: 0px ; padding: 7px ; font-style: normal ; font-weight: 600 ; text-align: left ; vertical-align: top ; border-top: none ; border-right: 1px solid black ; border-bottom: 1px solid rgb(105 , 105 , 105) ; border-left: none ; font-family: , &amp;quot;tahoma&amp;quot; , &amp;quot;arial&amp;quot; , sans-serif ; background: rgb(233 , 233 , 233) ; line-height: 1.4 ; color: rgb(105 , 105 , 105)&quot;&gt;&lt;strong style=&quot;box-sizing: border-box ; font-weight: 700&quot;&gt;Input&lt;/strong&gt;&lt;/th&gt;&lt;th id=&quot;UBPBYQMFP8NGXXH03794&quot; class=&quot;alignleft underscore sidescore&quot; style=&quot;box-sizing: border-box ; margin: 0px ; padding: 7px ; font-style: normal ; font-weight: 600 ; text-align: left ; vertical-align: top ; border-top: none ; border-right: 1px solid black ; border-bottom: 1px solid rgb(105 , 105 , 105) ; border-left: none ; font-family: , &amp;quot;tahoma&amp;quot; , &amp;quot;arial&amp;quot; , sans-serif ; background: rgb(233 , 233 , 233) ; line-height: 1.4 ; color: rgb(105 , 105 , 105)&quot;&gt;&lt;strong style=&quot;box-sizing: border-box ; font-weight: 700&quot;&gt;Processing&lt;/strong&gt;&lt;/th&gt;&lt;th id=&quot;VYWB3Z7JSJFBASCJP158&quot; class=&quot;alignleft underscore sidescore&quot; style=&quot;box-sizing: border-box ; margin: 0px ; padding: 7px ; font-style: normal ; font-weight: 600 ; text-align: left ; vertical-align: top ; border-top: none ; border-right: 1px solid black ; border-bottom: 1px solid rgb(105 , 105 , 105) ; border-left: none ; font-family: , &amp;quot;tahoma&amp;quot; , &amp;quot;arial&amp;quot; , sans-serif ; background: rgb(233 , 233 , 233) ; line-height: 1.4 ; color: rgb(105 , 105 , 105)&quot;&gt;&lt;strong style=&quot;box-sizing: border-box ; font-weight: 700&quot;&gt;Output&lt;/strong&gt;&lt;/th&gt;&lt;/tr&gt;&lt;/thead&gt;&lt;tbody id=&quot;EQYW6H2HE7ZANLHRS578&quot; style=&quot;box-sizing: border-box&quot;&gt;&lt;tr class=&quot;odd&quot; id=&quot;RLVW4UF8S0RXLG8Z3933&quot; style=&quot;box-sizing: border-box ; background: rgb(255 , 255 , 255)&quot;&gt;&lt;td id=&quot;QTBSHDBZ1RVHDMPY1291&quot; class=&quot;alignleft sidescore underscore&quot; style=&quot;box-sizing: border-box ; margin: 0px ; padding: 7px ; vertical-align: top ; border-top: none ; border-right: 1px solid black ; border-bottom: 1px solid rgb(105 , 105 , 105) ; border-left: none ; font-family: , &amp;quot;tahoma&amp;quot; , &amp;quot;arial&amp;quot; , sans-serif ; text-align: left ; line-height: 1.4&quot;&gt;&lt;p style=&quot;box-sizing: border-box ; font-family: , &amp;quot;tahoma&amp;quot; , &amp;quot;arial&amp;quot; , sans-serif ; line-height: 1.4 ; color: rgb(87 , 87 , 87) ; margin: 0px 0px 15px ; padding: 0px ; font-size: 13.6242px&quot;&gt;First value&lt;/p&gt;&lt;p style=&quot;box-sizing: border-box ; font-family: , &amp;quot;tahoma&amp;quot; , &amp;quot;arial&amp;quot; , sans-serif ; line-height: 1.4 ; color: rgb(87 , 87 , 87) ; margin: 0px 0px 15px ; padding: 0px ; font-size: 13.6242px&quot;&gt;Second value&lt;/p&gt;&lt;p style=&quot;box-sizing: border-box ; font-family: , &amp;quot;tahoma&amp;quot; , &amp;quot;arial&amp;quot; , sans-serif ; line-height: 1.4 ; color: rgb(87 , 87 , 87) ; margin: 0px 0px 15px ; padding: 0px ; font-size: 13.6242px&quot;&gt;Third value&lt;/p&gt;&lt;/td&gt;&lt;td id=&quot;VARKPHZMT3592BJ28213&quot; class=&quot;alignleft sidescore underscore&quot; style=&quot;box-sizing: border-box ; margin: 0px ; padding: 7px ; vertical-align: top ; border-top: none ; border-right: 1px solid black ; border-bottom: 1px solid rgb(105 , 105 , 105) ; border-left: none ; font-family: , &amp;quot;tahoma&amp;quot; , &amp;quot;arial&amp;quot; , sans-serif ; text-align: left ; line-height: 1.4&quot;&gt;&lt;p style=&quot;box-sizing: border-box ; font-family: , &amp;quot;tahoma&amp;quot; , &amp;quot;arial&amp;quot; , sans-serif ; line-height: 1.4 ; color: rgb(87 , 87 , 87) ; margin: 0px ; padding: 0px ; font-size: 13.6242px&quot;&gt;If the firstvalue is smaller than each of the other two,save it as the smallest value; otherwise, if the second value is smaller than the third, save it as the smallest value; otherwise, save the third value as the smallest value&lt;/p&gt;&lt;/td&gt;&lt;td id=&quot;BWGRN8QYA9HH0SCBH564&quot; class=&quot;alignleft sidescore underscore&quot; style=&quot;box-sizing: border-box ; margin: 0px ; padding: 7px ; vertical-align: top ; border-top: none ; border-right: 1px solid black ; border-bottom: 1px solid rgb(105 , 105 , 105) ; border-left: none ; font-family: , &amp;quot;tahoma&amp;quot; , &amp;quot;arial&amp;quot; , sans-serif ; text-align: left ; line-height: 1.4&quot;&gt;&lt;p style=&quot;box-sizing: border-box ; font-family: , &amp;quot;tahoma&amp;quot; , &amp;quot;arial&amp;quot; , sans-serif ; line-height: 1.4 ; color: rgb(87 , 87 , 87) ; margin: 0px ; padding: 0px ; font-size: 13.6242px&quot;&gt;Smallest value&lt;/p&gt;&lt;/td&gt;&lt;/tr&gt;&lt;/tbody&gt;&lt;/table&gt;&lt;/div&gt;&lt;/div&gt;" style="text;whiteSpace=wrap;html=1;" vertex="1" parent="1">
                    <mxGeometry x="-40" y="-240" width="550" height="260" as="geometry"/>
                </mxCell>
                <mxCell id="5" value="Input&amp;nbsp;&lt;span style=&quot;white-space: pre&quot;&gt;&#9;&lt;/span&gt;" style="whiteSpace=wrap;html=1;" vertex="1" parent="1">
                    <mxGeometry y="230" width="120" height="60" as="geometry"/>
                </mxCell>
                <mxCell id="6" value="Processing" style="whiteSpace=wrap;html=1;" vertex="1" parent="1">
                    <mxGeometry x="120" y="230" width="350" height="60" as="geometry"/>
                </mxCell>
                <mxCell id="7" value="Output" style="whiteSpace=wrap;html=1;" vertex="1" parent="1">
                    <mxGeometry x="470" y="230" width="120" height="60" as="geometry"/>
                </mxCell>
                <mxCell id="8" value="Drinks&lt;br&gt;Appetizers&lt;br&gt;Entrees&lt;br&gt;Desserts&lt;br&gt;Gratuity&lt;br&gt;Tip" style="whiteSpace=wrap;html=1;" vertex="1" parent="1">
                    <mxGeometry y="290" width="120" height="150" as="geometry"/>
                </mxCell>
                <mxCell id="9" value="Add all billable values of Drinks, Appetizers, Entrees, and Desserts into totalBill variable initialized in scope. Multiply by gratuity, tip or both depending on if the table is large enough for gratuity. Add totalBill and multiplied value to have totalBill." style="whiteSpace=wrap;html=1;" vertex="1" parent="1">
                    <mxGeometry x="120" y="290" width="350" height="150" as="geometry"/>
                </mxCell>
                <mxCell id="10" value="totalBill" style="whiteSpace=wrap;html=1;" vertex="1" parent="1">
                    <mxGeometry x="470" y="290" width="120" height="150" as="geometry"/>
                </mxCell>
                <mxCell id="14" value="A)" style="text;html=1;align=center;verticalAlign=middle;resizable=0;points=[];autosize=1;strokeColor=none;fillColor=none;" vertex="1" parent="1">
                    <mxGeometry x="-25" y="220" width="30" height="20" as="geometry"/>
                </mxCell>
                <mxCell id="15" value="Input&amp;nbsp;&lt;span style=&quot;white-space: pre&quot;&gt;&#9;&lt;/span&gt;" style="whiteSpace=wrap;html=1;" vertex="1" parent="1">
                    <mxGeometry y="520" width="120" height="60" as="geometry"/>
                </mxCell>
                <mxCell id="16" value="Processing" style="whiteSpace=wrap;html=1;" vertex="1" parent="1">
                    <mxGeometry x="120" y="520" width="350" height="60" as="geometry"/>
                </mxCell>
                <mxCell id="17" value="Output" style="whiteSpace=wrap;html=1;" vertex="1" parent="1">
                    <mxGeometry x="470" y="520" width="120" height="60" as="geometry"/>
                </mxCell>
                <mxCell id="18" value="Miles&lt;br&gt;Gallons&lt;br&gt;Miles Per Gallon&lt;br&gt;Gas Price&lt;br&gt;Cost" style="whiteSpace=wrap;html=1;" vertex="1" parent="1">
                    <mxGeometry y="580" width="120" height="150" as="geometry"/>
                </mxCell>
                <mxCell id="19" value="Take values of Miles driven and Miles Per Gallon and divide them and set them equal to Gallons. Multiply Gallons and Gas Price and set that equal to Cost.&amp;nbsp;" style="whiteSpace=wrap;html=1;" vertex="1" parent="1">
                    <mxGeometry x="120" y="580" width="350" height="150" as="geometry"/>
                </mxCell>
                <mxCell id="20" value="Cost" style="whiteSpace=wrap;html=1;" vertex="1" parent="1">
                    <mxGeometry x="470" y="580" width="120" height="150" as="geometry"/>
                </mxCell>
                <mxCell id="21" value="B)" style="text;html=1;align=center;verticalAlign=middle;resizable=0;points=[];autosize=1;strokeColor=none;fillColor=none;" vertex="1" parent="1">
                    <mxGeometry x="-25" y="500" width="30" height="20" as="geometry"/>
                </mxCell>
                <mxCell id="22" value="Input&amp;nbsp;&lt;span style=&quot;white-space: pre&quot;&gt;&#9;&lt;/span&gt;" style="whiteSpace=wrap;html=1;" vertex="1" parent="1">
                    <mxGeometry y="790" width="120" height="60" as="geometry"/>
                </mxCell>
                <mxCell id="23" value="Processing" style="whiteSpace=wrap;html=1;" vertex="1" parent="1">
                    <mxGeometry x="120" y="790" width="350" height="60" as="geometry"/>
                </mxCell>
                <mxCell id="24" value="Output" style="whiteSpace=wrap;html=1;" vertex="1" parent="1">
                    <mxGeometry x="470" y="790" width="120" height="60" as="geometry"/>
                </mxCell>
                <mxCell id="25" value="Annual Charges&lt;br&gt;Deductions&lt;br&gt;Coverage&lt;br&gt;Total Bill" style="whiteSpace=wrap;html=1;" vertex="1" parent="1">
                    <mxGeometry y="850" width="120" height="150" as="geometry"/>
                </mxCell>
                <mxCell id="26" value="Take the total Annual Charges of your medical expenses and subtract the Deductions of your medical plan, and the payments made by the insurance Coverage. Set this value equal to Total Bill.&amp;nbsp;&amp;nbsp;" style="whiteSpace=wrap;html=1;" vertex="1" parent="1">
                    <mxGeometry x="120" y="850" width="350" height="150" as="geometry"/>
                </mxCell>
                <mxCell id="27" value="" style="whiteSpace=wrap;html=1;" vertex="1" parent="1">
                    <mxGeometry x="470" y="850" width="120" height="150" as="geometry"/>
                </mxCell>
                <mxCell id="28" value="C)" style="text;html=1;align=center;verticalAlign=middle;resizable=0;points=[];autosize=1;strokeColor=none;fillColor=none;" vertex="1" parent="1">
                    <mxGeometry x="-25" y="770" width="30" height="20" as="geometry"/>
                </mxCell>
            </root>
        </mxGraphModel>
    </diagram>
</mxfile>